<?xml version="1.0" standalone="no"?>
<!DOCTYPE svg PUBLIC "-//W3C//DTD SVG 20010904//EN"
 "http://www.w3.org/TR/2001/REC-SVG-20010904/DTD/svg10.dtd">
<svg version="1.0" xmlns="http://www.w3.org/2000/svg"
 width="500.000000pt" height="500.000000pt" viewBox="0 0 500.000000 500.000000"
 preserveAspectRatio="xMidYMid meet">
<metadata>
Created by potrace 1.14, written by Peter Selinger 2001-2017
</metadata>
<g transform="translate(0.000000,500.000000) scale(0.100000,-0.100000)"
fill="#000000" stroke="none">
<path d="M1139 4966 c-2 -2 -50 -6 -107 -10 -157 -9 -273 -29 -382 -66 -151
-51 -339 -199 -437 -345 -109 -162 -145 -281 -170 -565 -10 -122 -11 -2845 0
-2970 13 -151 53 -352 77 -385 3 -5 13 -26 20 -45 41 -106 206 -297 320 -372
162 -105 284 -141 565 -165 117 -10 2843 -10 2960 0 333 29 513 102 690 282
90 91 101 105 152 195 48 82 97 224 108 310 4 30 9 63 11 73 15 83 19 393 19
1587 0 1543 0 1560 -52 1770 -42 176 -100 276 -243 420 -157 160 -339 243
-586 266 -32 3 -70 8 -84 12 -26 6 -2854 15 -2861 8z"/>
</g>
</svg>
