<?xml version="1.0" standalone="no"?>
<!DOCTYPE svg PUBLIC "-//W3C//DTD SVG 20010904//EN"
 "http://www.w3.org/TR/2001/REC-SVG-20010904/DTD/svg10.dtd">
<svg version="1.0" xmlns="http://www.w3.org/2000/svg"
 width="512.000000pt" height="512.000000pt" viewBox="0 0 512.000000 512.000000"
 preserveAspectRatio="xMidYMid meet">
<metadata>
Created by potrace 1.14, written by Peter Selinger 2001-2017
</metadata>
<g transform="translate(0.000000,512.000000) scale(0.100000,-0.100000)"
fill="#000000" stroke="none">
<path d="M1620 5001 c-215 -66 -282 -336 -123 -496 83 -83 227 -105 333 -51
107 54 163 144 164 261 1 167 -129 297 -293 294 -31 0 -67 -4 -81 -8z"/>
<path d="M3219 4845 c-2 -1 -22 -6 -43 -9 -36 -6 -130 -50 -167 -79 -8 -7 -36
-38 -62 -69 -127 -158 -113 -391 32 -538 97 -98 234 -140 376 -115 52 9 152
64 198 109 256 249 93 682 -264 702 -37 1 -68 1 -70 -1z"/>
<path d="M1535 3679 c-22 -4 -56 -10 -75 -13 -40 -8 -37 -7 -114 -30 -338
-100 -643 -403 -746 -740 -42 -137 -54 -224 -53 -378 6 -453 296 -870 724
-1039 220 -86 484 -99 725 -35 255 67 495 242 646 471 186 281 233 599 143
955 -18 72 -110 269 -147 315 -128 161 -192 225 -298 300 -112 79 -303 160
-425 181 -22 4 -49 9 -60 11 -34 9 -278 10 -320 2z"/>
<path d="M3912 3135 c-213 -48 -375 -208 -429 -424 -13 -53 -11 -206 3 -261
52 -194 202 -351 389 -405 267 -78 557 58 677 318 72 157 50 387 -52 537 -71
105 -208 204 -320 232 -66 16 -203 18 -268 3z"/>
<path d="M3173 1141 c-111 -28 -213 -112 -265 -219 -31 -62 -33 -73 -33 -172
0 -99 2 -110 32 -171 42 -84 108 -150 192 -192 58 -28 76 -32 157 -34 159 -4
267 54 354 188 69 107 78 263 23 378 -38 79 -135 173 -209 202 -63 24 -192 35
-251 20z"/>
<path d="M1669 666 c-117 -31 -196 -141 -186 -258 5 -68 11 -90 33 -125 48
-75 120 -116 215 -119 155 -7 274 117 262 274 -11 161 -167 271 -324 228z"/>
</g>
</svg>
