<svg width="1200" height="628" viewBox="0 0 1200 628" fill="none" xmlns="http://www.w3.org/2000/svg">
<path fill-rule="evenodd" clip-rule="evenodd" d="M595.296 561.723C463.588 558.487 328.498 632.465 215.925 581.437C88.9009 523.858 -7.55085 408.29 15.3889 298.856C37.3322 194.177 199.593 150.861 318.396 92.6028C404.095 50.5785 492.922 19.5955 595.296 14.4869C707.071 8.90916 817.824 17.7462 911.96 62.9832C1034.1 121.678 1169.35 191.392 1187.06 298.856C1205.88 413.146 1133.31 541.736 1000.55 600.714C878.934 654.735 736.813 565.2 595.296 561.723Z" fill="#1F202D"/>
<ellipse cx="27.9018" cy="26.4443" rx="27.9018" ry="26.4443" transform="matrix(0.949016 -0.315228 0.356458 0.934311 593.104 238.053)" fill="url(#paint0_linear_454_145)"/>
<g filter="url(#filter0_d_454_145)">
<path d="M244.194 347.784C236.063 347.784 228.281 346.855 220.847 344.997C213.413 343.138 206.908 340.699 201.332 337.679C195.757 334.659 191.343 331.406 188.091 327.922C184.838 324.437 183.212 321.185 183.212 318.165C183.212 315.841 183.561 313.867 184.258 312.241C184.955 310.847 186 309.337 187.394 307.711C189.717 305.387 191.575 303.761 192.969 302.832C194.363 301.903 196.222 301.438 198.545 301.438C200.868 301.438 203.191 302.367 205.514 304.226C207.837 306.317 210.625 308.524 213.877 310.847C217.362 313.402 221.544 315.609 226.422 317.468C231.533 319.558 237.805 320.604 245.239 320.604C252.906 320.604 259.759 319.442 265.799 317.119C271.839 314.796 277.066 311.311 281.48 306.665C285.894 302.019 289.262 296.327 291.585 289.59C293.909 283.085 295.07 275.652 295.07 267.288L294.373 122.326C294.606 117.912 295.883 114.776 298.206 112.917C300.762 111.059 304.711 110.13 310.054 110.13C314.468 110.13 317.604 110.827 319.463 112.22C321.554 113.382 322.831 115.124 323.296 117.447C323.993 119.538 324.341 122.21 324.341 125.462V269.728C324.341 282.04 322.367 292.959 318.417 302.484C314.468 312.241 308.893 320.488 301.691 327.225C294.489 333.962 286.01 339.073 276.253 342.557C266.496 346.042 255.81 347.784 244.194 347.784ZM243.149 275.652C231.998 275.652 221.66 273.677 212.135 269.728C202.842 265.546 194.595 259.738 187.394 252.304C180.424 244.87 174.965 236.159 171.016 226.169C167.299 216.18 165.44 205.261 165.44 193.413C165.44 181.565 167.299 170.647 171.016 160.657C174.965 150.668 180.424 141.956 187.394 134.522C194.363 127.088 202.494 121.397 211.786 117.447C221.311 113.266 231.649 111.175 242.8 111.175C253.022 111.175 262.314 113.15 270.677 117.099C279.041 121.048 286.126 126.74 291.934 134.174C297.974 141.376 302.504 149.971 305.524 159.96C308.544 169.95 310.054 181.101 310.054 193.413C310.054 210.14 307.383 224.659 302.039 236.972C296.696 249.284 289.03 258.809 279.041 265.546C269.051 272.283 257.087 275.652 243.149 275.652ZM244.891 247.077C254.183 247.077 262.547 244.754 269.981 240.108C277.414 235.462 283.338 229.073 287.752 220.942C292.166 212.811 294.373 203.403 294.373 192.716C294.373 182.262 292.166 173.086 287.752 165.187C283.338 157.057 277.298 150.784 269.632 146.37C262.198 141.956 253.719 139.749 244.194 139.749C234.669 139.749 226.19 141.956 218.756 146.37C211.322 150.784 205.514 157.057 201.332 165.187C197.383 173.086 195.409 182.378 195.409 193.065C195.409 203.751 197.499 213.16 201.681 221.291C205.863 229.189 211.67 235.462 219.104 240.108C226.538 244.754 235.134 247.077 244.891 247.077ZM444.073 281.575C432.689 281.575 421.771 279.369 411.317 274.955C401.095 270.541 391.919 264.501 383.788 256.834C375.657 248.936 369.268 239.759 364.622 229.305C359.976 218.851 357.653 207.468 357.653 195.156C357.653 183.075 359.86 171.924 364.274 161.703C368.687 151.249 374.844 142.072 382.742 134.174C390.641 126.275 399.701 120.119 409.923 115.705C420.377 111.059 431.528 108.736 443.376 108.736C459.405 108.736 473.808 112.569 486.586 120.235C499.595 127.669 509.933 137.891 517.599 150.9C525.265 163.91 529.099 178.545 529.099 194.807C529.099 207.584 526.775 219.316 522.129 230.002C517.483 240.456 511.211 249.516 503.312 257.183C495.413 264.849 486.353 270.889 476.132 275.303C465.91 279.485 455.223 281.575 444.073 281.575ZM443.376 251.259C453.133 251.259 462.193 248.82 470.556 243.941C478.919 239.062 485.656 232.325 490.767 223.73C495.878 215.134 498.433 205.377 498.433 194.459C498.433 183.54 495.994 173.899 491.116 165.536C486.469 157.173 479.965 150.668 471.601 146.022C463.238 141.376 453.713 139.052 443.027 139.052C432.805 139.052 423.513 141.492 415.15 146.37C407.019 151.249 400.398 157.87 395.287 166.233C390.409 174.596 387.969 184.121 387.969 194.807C387.969 205.958 390.525 215.831 395.636 224.427C400.746 232.79 407.483 239.411 415.847 244.289C424.442 248.936 433.619 251.259 443.376 251.259ZM639.064 281.575C627.681 281.575 616.763 279.369 606.308 274.955C596.087 270.541 586.91 264.501 578.78 256.834C570.649 248.936 564.26 239.759 559.614 229.305C554.968 218.851 552.645 207.468 552.645 195.156C552.645 183.075 554.852 171.924 559.265 161.703C563.679 151.249 569.836 142.072 577.734 134.174C585.633 126.275 594.693 120.119 604.915 115.705C615.369 111.059 626.52 108.736 638.367 108.736C654.397 108.736 668.8 112.569 681.577 120.235C694.587 127.669 704.925 137.891 712.591 150.9C720.257 163.91 724.09 178.545 724.09 194.807C724.09 207.584 721.767 219.316 717.121 230.002C712.475 240.456 706.202 249.516 698.304 257.183C690.405 264.849 681.345 270.889 671.123 275.303C660.902 279.485 650.215 281.575 639.064 281.575ZM638.367 251.259C648.125 251.259 657.185 248.82 665.548 243.941C673.911 239.062 680.648 232.325 685.759 223.73C690.87 215.134 693.425 205.377 693.425 194.459C693.425 183.54 690.986 173.899 686.107 165.536C681.461 157.173 674.957 150.668 666.593 146.022C658.23 141.376 648.705 139.052 638.019 139.052C627.797 139.052 618.505 141.492 610.142 146.37C602.011 151.249 595.39 157.87 590.279 166.233C585.4 174.596 582.961 184.121 582.961 194.807C582.961 205.958 585.517 215.831 590.627 224.427C595.738 232.79 602.475 239.411 610.839 244.289C619.434 248.936 628.61 251.259 638.367 251.259ZM837.193 281.227C823.254 281.227 810.825 278.904 799.907 274.258C788.988 269.611 779.695 263.339 772.029 255.44C764.595 247.31 758.904 238.017 754.954 227.563C751.005 217.109 749.03 205.842 749.03 193.762C749.03 177.732 752.747 163.445 760.181 150.9C767.615 138.355 777.837 128.482 790.846 121.281C804.088 113.847 819.188 110.13 836.147 110.13C847.763 110.13 858.101 111.988 867.161 115.705C876.453 119.19 884.352 123.952 890.856 129.992C897.361 136.032 902.356 142.769 905.841 150.203C909.325 157.637 911.068 165.071 911.068 172.505C911.068 184.353 908.28 192.716 902.704 197.595C897.129 202.241 890.276 204.564 882.145 204.564H781.438C781.205 214.786 783.877 223.614 789.453 231.048C795.26 238.249 802.462 243.825 811.057 247.774C819.885 251.723 828.713 253.698 837.541 253.698C844.046 253.698 849.621 253.35 854.267 252.653C858.914 251.956 862.979 251.027 866.464 249.865C869.948 248.703 872.968 247.542 875.524 246.38C878.079 245.219 880.286 244.057 882.145 242.896C884.236 241.734 886.21 240.921 888.069 240.456C890.16 239.992 892.134 240.224 893.993 241.153C896.083 241.85 897.71 243.36 898.871 245.683C900.265 247.542 901.194 249.284 901.659 250.91C902.124 252.537 902.356 254.279 902.356 256.137C902.356 259.39 899.568 262.991 893.993 266.94C888.417 270.889 880.635 274.258 870.645 277.045C860.888 279.833 849.737 281.227 837.193 281.227ZM781.438 184.005H868.903C873.317 184.005 876.569 183.424 878.66 182.262C880.983 181.101 882.145 177.965 882.145 172.854C882.145 166.349 880.17 160.541 876.221 155.43C872.272 150.087 866.812 145.789 859.843 142.537C853.106 139.285 845.323 137.659 836.496 137.659C826.274 137.659 816.865 139.749 808.27 143.931C799.907 147.88 793.286 153.34 788.407 160.309C783.529 167.278 781.205 175.177 781.438 184.005ZM972.665 347.087C967.089 344.764 963.837 342.093 962.907 339.073C961.978 336.053 962.791 331.871 965.347 326.528L1057.69 119.19C1060.25 113.847 1062.92 110.594 1065.71 109.433C1068.73 108.039 1072.91 108.503 1078.25 110.827C1083.83 113.382 1086.96 116.17 1087.66 119.19C1088.59 122.21 1087.89 126.275 1085.57 131.386L992.527 339.769C990.204 345.113 987.649 348.249 984.861 349.178C982.073 350.107 978.008 349.41 972.665 347.087ZM1007.16 257.183L927.364 134.174C924.344 129.528 923.182 125.694 923.879 122.674C924.576 119.422 927.248 116.286 931.894 113.266C937.005 110.013 941.07 108.852 944.09 109.781C947.343 110.478 950.595 113.15 953.847 117.796L1021.45 224.078L1007.16 257.183Z" fill="white"/>
</g>
<ellipse cx="17.705" cy="16.7802" rx="17.705" ry="16.7802" transform="matrix(0.949016 -0.315228 0.356458 0.934311 306.526 265.225)" fill="url(#paint1_linear_454_145)"/>
<g filter="url(#filter1_d_454_145)">
<ellipse cx="20.5098" cy="19.4385" rx="20.5098" ry="19.4385" transform="matrix(0.949016 -0.315228 0.356458 0.934311 1056.73 152.216)" fill="url(#paint2_linear_454_145)"/>
</g>
<ellipse cx="17.705" cy="16.7802" rx="17.705" ry="16.7802" transform="matrix(0.949016 -0.315228 0.356458 0.934311 730.89 136.637)" fill="url(#paint3_linear_454_145)"/>
<g filter="url(#filter2_d_454_145)">
<rect x="388.261" y="305.996" width="490.032" height="32.6688" rx="16.3344" fill="#0B0E11"/>
</g>
<g filter="url(#filter3_d_454_145)">
<rect x="725.84" y="284.217" width="32.6688" height="76.2272" rx="10.8896" fill="#57B1FF"/>
</g>
<g filter="url(#filter4_ddd_454_145)">
<rect x="151.384" y="416" width="962.232" height="130" rx="18.5714" fill="#0B0B11" shape-rendering="crispEdges"/>
<path d="M288.319 499.5H282.287L286.277 479.008C287.49 472.592 284.17 470.932 279.861 470.932C275.073 470.932 270.764 472.975 266.646 476.326L262.145 499.5H256.081L262.465 466.719H267.572L267.093 471.921H267.987C272.104 468.538 276.669 465.952 283.053 465.952C290.33 465.952 294.193 469.24 292.629 477.348L288.319 499.5ZM338.256 483.221C336.117 494.361 328.967 500.266 319.647 500.266C313.39 500.266 310.326 497.649 308.251 494.967H307.836L304.549 511.853H298.516L307.294 466.719H312.401L312.018 471.219H312.784C315.976 468.474 320.413 465.952 326.414 465.952C335.606 465.952 340.394 472.273 338.256 483.221ZM308.57 491.169C311.22 493.978 314.635 495.127 318.402 495.127C325.839 495.127 330.563 490.722 332.031 482.998C333.5 475.528 330.659 471.06 323.285 471.06C319.455 471.06 315.529 472.241 311.699 475.113L308.57 491.169ZM364.316 499.5H358.666L363.422 475.018C364.029 471.89 362.497 471.06 360.741 471.06C358.475 471.06 356.432 472.496 354.74 474.475L349.888 499.5H344.271L350.623 466.719H355.347L354.932 471.347H355.411C357.358 468.219 360.55 465.984 364.284 465.984C367.636 465.984 369.774 467.708 369.615 471.347H369.87C371.785 468.219 374.913 465.984 378.648 465.984C382.51 465.984 384.713 468.219 383.755 473.326L378.712 499.5H373.062L377.818 475.018C378.425 471.89 376.861 471.06 375.105 471.06C372.871 471.06 370.796 472.464 369.136 474.411L364.316 499.5ZM433.737 499.5L434.695 494.616H448.676L453.145 471.506H439.196L440.089 466.719L459.497 465.984L460.135 466.75L454.709 494.616H468.689L467.764 499.5H433.737ZM453.879 454.238C454.357 451.684 456.496 450.152 459.113 450.152C461.731 450.152 463.263 451.684 462.752 454.238C462.274 456.792 460.135 458.356 457.517 458.356C454.9 458.356 453.368 456.792 453.879 454.238ZM511.508 499.5H505.475L509.465 479.008C510.678 472.592 507.358 470.932 503.049 470.932C498.261 470.932 493.952 472.975 489.834 476.326L485.333 499.5H479.269L485.653 466.719H490.76L490.281 471.921H491.175C495.292 468.538 499.857 465.952 506.241 465.952C513.519 465.952 517.381 469.24 515.817 477.348L511.508 499.5ZM546.442 465.952C556.943 465.952 561.316 469.4 560.965 475.209L555.507 476.007C555.347 472.624 552.538 470.453 544.941 470.453C538.685 470.453 534.823 471.921 534.216 475.018C533.674 477.858 536.451 479.231 545.005 480.508C555.539 482.104 559.401 484.753 558.316 490.339C557.135 496.404 551.325 500.234 539.93 500.234C528.982 500.234 524.257 496.915 523.747 490.371L529.173 489.286C530.131 494.137 534.248 495.542 540.824 495.542C548.325 495.542 551.708 493.531 552.251 490.658C552.857 487.69 549.953 486.413 540.632 485.008C531.216 483.604 527.386 480.572 528.439 475.177C529.556 469.432 534.982 465.952 546.442 465.952ZM579.046 488.456L582.333 471.602H571.129L572.055 466.719H583.259L585.27 456.44H591.335L589.356 466.719H607.007L606.081 471.602H588.398L585.078 488.679C584.153 493.276 586.227 495.478 590.313 495.478C594.495 495.478 597.367 493.084 598.229 488.679L598.548 487.083H603.432L603.209 488.232C601.677 496.148 597.399 500.234 588.941 500.234C580.929 500.234 577.481 496.659 579.046 488.456ZM634.887 465.952C644.878 465.952 649.378 469.272 647.814 477.284L644.846 492.542C644.367 494.935 645.197 495.478 648.293 495.095L647.431 499.5C645.803 499.947 644.399 500.138 643.154 500.138C639.292 500.138 638.334 498.223 638.558 495.861H637.887C634.025 498.287 629.141 500.266 623.492 500.266C616.086 500.266 611.937 496.787 613.054 491.041C614.81 481.976 626.428 480.827 641.016 481.21L641.782 477.22C642.931 471.347 638.334 470.262 633.482 470.294C628.343 470.294 624.13 471.538 623.236 475.911L622.949 477.22H617.299L617.618 475.528C618.704 469.91 623.587 465.952 634.887 465.952ZM619.534 490.563C618.895 493.85 621.608 495.702 626.747 495.702C630.897 495.702 634.919 494.552 638.781 492.605L640.313 484.817C638.59 484.625 636.738 484.53 635.078 484.53C625.535 484.53 620.364 486.285 619.534 490.563ZM656.925 499.5L657.883 494.616H671.864L679.493 455.451H665.512L666.438 450.663L685.813 449.961L686.451 450.695L677.929 494.616H691.909L690.952 499.5H656.925ZM701.563 499.5L702.521 494.616H716.501L724.13 455.451H710.149L711.075 450.663L730.45 449.961L731.089 450.695L722.566 494.616H736.547L735.589 499.5H701.563ZM793.137 481.306C795.084 471.347 802.234 465.952 811.203 465.952C817.459 465.952 820.875 468.57 822.822 471.251H823.652L824.992 466.719H830.131L824.162 497.553C821.992 508.661 815.321 512.779 804.564 512.779C794.509 512.779 790.519 509.012 789.785 503.873L795.754 502.341C796.584 506.107 799.584 508.054 805.33 508.054C811.81 508.054 816.534 505.533 818.034 497.904L819.247 491.68H818.928C815.8 494.457 811.331 496.978 805.298 496.978C796.456 496.978 791.221 491.169 793.137 481.306ZM799.361 481.529C798.148 487.785 801.308 491.871 808.458 491.871C812.288 491.871 816.183 490.69 819.981 487.849L822.439 475.05C819.758 472.241 816.278 471.092 812.48 471.092C805.298 471.092 800.606 475.145 799.361 481.529ZM873.684 483.381C871.481 494.712 862.416 500.266 852.585 500.266C842.562 500.266 835.412 494.393 837.647 482.966C839.849 471.666 848.946 465.952 858.745 465.952C868.8 465.952 875.918 471.985 873.684 483.381ZM843.871 483.189C842.275 491.329 846.456 495.319 853.319 495.319C860.15 495.319 865.863 491.329 867.459 483.189C869.055 474.986 864.874 470.9 858.043 470.9C851.18 470.9 845.467 474.986 843.871 483.189ZM918.321 483.381C916.119 494.712 907.054 500.266 897.222 500.266C887.2 500.266 880.05 494.393 882.284 482.966C884.487 471.666 893.584 465.952 903.383 465.952C913.438 465.952 920.556 471.985 918.321 483.381ZM888.508 483.189C886.912 491.329 891.094 495.319 897.957 495.319C904.787 495.319 910.501 491.329 912.097 483.189C913.693 474.986 909.512 470.9 902.681 470.9C895.818 470.9 890.104 474.986 888.508 483.189ZM926.89 482.902C928.997 471.89 937.232 465.952 948.691 465.952C959.576 465.952 964.683 471.379 962.767 481.114L962.321 483.54H933.018C931.646 491.584 935.604 495.287 942.977 495.287C948.276 495.287 952.234 493.435 954.915 489.828L960.693 490.914C957.086 496.627 950.702 500.266 942.147 500.266C931.327 500.266 924.655 494.265 926.89 482.902ZM934.136 479.55H956.958C957.98 473.805 954.66 470.9 947.925 470.9C941.19 470.9 936.402 473.869 934.136 479.55ZM967.569 512.427L968.623 506.969C969.836 507.288 971.304 507.48 972.868 507.48C978.262 507.48 981.167 504.479 982.987 501.639L983.944 500.075L973.921 466.719H980.337L988.221 493.212H988.668L1005.36 466.719H1011.59L990.647 499.181C985.796 506.746 980.529 512.81 971.687 512.81C970.155 512.81 968.974 512.651 967.569 512.427Z" fill="#BABECA"/>
</g>
<defs>
<filter id="filter0_d_454_145" x="138.54" y="107.342" width="950.512" height="271.13" filterUnits="userSpaceOnUse" color-interpolation-filters="sRGB">
<feFlood flood-opacity="0" result="BackgroundImageFix"/>
<feColorMatrix in="SourceAlpha" type="matrix" values="0 0 0 0 0 0 0 0 0 0 0 0 0 0 0 0 0 0 127 0" result="hardAlpha"/>
<feOffset dx="-14" dy="15"/>
<feGaussianBlur stdDeviation="6.45"/>
<feComposite in2="hardAlpha" operator="out"/>
<feColorMatrix type="matrix" values="0 0 0 0 0 0 0 0 0 0 0 0 0 0 0 0 0 0 0.47 0"/>
<feBlend mode="normal" in2="BackgroundImageFix" result="effect1_dropShadow_454_145"/>
<feBlend mode="normal" in="SourceGraphic" in2="effect1_dropShadow_454_145" result="shape"/>
</filter>
<filter id="filter1_d_454_145" x="1058.46" y="144.629" width="49.3326" height="69.5665" filterUnits="userSpaceOnUse" color-interpolation-filters="sRGB">
<feFlood flood-opacity="0" result="BackgroundImageFix"/>
<feColorMatrix in="SourceAlpha" type="matrix" values="0 0 0 0 0 0 0 0 0 0 0 0 0 0 0 0 0 0 127 0" result="hardAlpha"/>
<feOffset dy="27"/>
<feGaussianBlur stdDeviation="2"/>
<feComposite in2="hardAlpha" operator="out"/>
<feColorMatrix type="matrix" values="0 0 0 0 0 0 0 0 0 0 0 0 0 0 0 0 0 0 0.25 0"/>
<feBlend mode="normal" in2="BackgroundImageFix" result="effect1_dropShadow_454_145"/>
<feBlend mode="normal" in="SourceGraphic" in2="effect1_dropShadow_454_145" result="shape"/>
</filter>
<filter id="filter2_d_454_145" x="326.761" y="305.996" width="573.032" height="121.169" filterUnits="userSpaceOnUse" color-interpolation-filters="sRGB">
<feFlood flood-opacity="0" result="BackgroundImageFix"/>
<feColorMatrix in="SourceAlpha" type="matrix" values="0 0 0 0 0 0 0 0 0 0 0 0 0 0 0 0 0 0 127 0" result="hardAlpha"/>
<feOffset dx="-20" dy="47"/>
<feGaussianBlur stdDeviation="20.75"/>
<feComposite in2="hardAlpha" operator="out"/>
<feColorMatrix type="matrix" values="0 0 0 0 0 0 0 0 0 0 0 0 0 0 0 0 0 0 0.47 0"/>
<feBlend mode="normal" in2="BackgroundImageFix" result="effect1_dropShadow_454_145"/>
<feBlend mode="normal" in="SourceGraphic" in2="effect1_dropShadow_454_145" result="shape"/>
</filter>
<filter id="filter3_d_454_145" x="640.901" y="199.278" width="202.547" height="246.105" filterUnits="userSpaceOnUse" color-interpolation-filters="sRGB">
<feFlood flood-opacity="0" result="BackgroundImageFix"/>
<feColorMatrix in="SourceAlpha" type="matrix" values="0 0 0 0 0 0 0 0 0 0 0 0 0 0 0 0 0 0 127 0" result="hardAlpha"/>
<feOffset/>
<feGaussianBlur stdDeviation="42.4694"/>
<feComposite in2="hardAlpha" operator="out"/>
<feColorMatrix type="matrix" values="0 0 0 0 0.0352941 0 0 0 0 0.541176 0 0 0 0 0.894118 0 0 0 1 0"/>
<feBlend mode="normal" in2="BackgroundImageFix" result="effect1_dropShadow_454_145"/>
<feBlend mode="normal" in="SourceGraphic" in2="effect1_dropShadow_454_145" result="shape"/>
</filter>
<filter id="filter4_ddd_454_145" x="130.723" y="413.911" width="1003.55" height="184.321" filterUnits="userSpaceOnUse" color-interpolation-filters="sRGB">
<feFlood flood-opacity="0" result="BackgroundImageFix"/>
<feColorMatrix in="SourceAlpha" type="matrix" values="0 0 0 0 0 0 0 0 0 0 0 0 0 0 0 0 0 0 127 0" result="hardAlpha"/>
<feOffset dy="4.64286"/>
<feGaussianBlur stdDeviation="2.32143"/>
<feComposite in2="hardAlpha" operator="out"/>
<feColorMatrix type="matrix" values="0 0 0 0 0 0 0 0 0 0 0 0 0 0 0 0 0 0 0.25 0"/>
<feBlend mode="normal" in2="BackgroundImageFix" result="effect1_dropShadow_454_145"/>
<feColorMatrix in="SourceAlpha" type="matrix" values="0 0 0 0 0 0 0 0 0 0 0 0 0 0 0 0 0 0 127 0" result="hardAlpha"/>
<feOffset dy="18.5714"/>
<feGaussianBlur stdDeviation="10.3304"/>
<feComposite in2="hardAlpha" operator="out"/>
<feColorMatrix type="matrix" values="0 0 0 0 0 0 0 0 0 0 0 0 0 0 0 0 0 0 0.25 0"/>
<feBlend mode="normal" in2="effect1_dropShadow_454_145" result="effect2_dropShadow_454_145"/>
<feColorMatrix in="SourceAlpha" type="matrix" values="0 0 0 0 0 0 0 0 0 0 0 0 0 0 0 0 0 0 127 0" result="hardAlpha"/>
<feOffset dy="33.6607"/>
<feGaussianBlur stdDeviation="9.28571"/>
<feComposite in2="hardAlpha" operator="out"/>
<feColorMatrix type="matrix" values="0 0 0 0 0 0 0 0 0 0 0 0 0 0 0 0 0 0 0.11 0"/>
<feBlend mode="normal" in2="effect2_dropShadow_454_145" result="effect3_dropShadow_454_145"/>
<feBlend mode="normal" in="SourceGraphic" in2="effect3_dropShadow_454_145" result="shape"/>
</filter>
<linearGradient id="paint0_linear_454_145" x1="27.9018" y1="0" x2="27.9018" y2="52.8885" gradientUnits="userSpaceOnUse">
<stop stop-color="#1EFFE4"/>
<stop offset="1" stop-color="#004545"/>
</linearGradient>
<linearGradient id="paint1_linear_454_145" x1="17.705" y1="3.11163e-08" x2="18.6928" y2="48.3442" gradientUnits="userSpaceOnUse">
<stop stop-color="#57B1FF"/>
<stop offset="1" stop-color="#2B2E6B"/>
</linearGradient>
<linearGradient id="paint2_linear_454_145" x1="20.5098" y1="-5.09588e-07" x2="3.95118" y2="62.1346" gradientUnits="userSpaceOnUse">
<stop stop-color="#77C0FF"/>
<stop offset="1" stop-color="#2C5484"/>
</linearGradient>
<linearGradient id="paint3_linear_454_145" x1="17.705" y1="0" x2="14.2033" y2="47.999" gradientUnits="userSpaceOnUse">
<stop stop-color="#0094FF"/>
<stop offset="1" stop-color="#2B5C6B"/>
</linearGradient>
</defs>
</svg>
