<svg width="500" height="500" viewBox="0 0 500 500" fill="none" xmlns="http://www.w3.org/2000/svg">
<rect x="3" y="3" width="494" height="494" rx="100" fill="#15161D"/>
<path d="M411.942 296.306C419.239 315.868 408.6 337.35 388.18 344.287C367.759 351.225 345.288 340.99 337.991 321.428C330.694 301.866 341.332 280.384 361.753 273.447C382.174 266.51 404.644 276.744 411.942 296.306Z" fill="url(#paint0_linear_454_136)"/>
<path d="M384.689 330.899C393.991 355.835 381.103 382.99 355.903 391.551C330.703 400.112 302.733 386.837 293.431 361.901C284.129 336.965 297.017 309.81 322.217 301.249C347.417 292.688 375.387 305.963 384.689 330.899Z" fill="url(#paint1_linear_454_136)"/>
<path d="M335.926 356.481C346.752 385.502 331.753 417.104 302.425 427.067C273.097 437.031 240.546 421.581 229.72 392.561C218.894 363.54 233.893 331.938 263.221 321.974C292.549 312.011 325.1 327.46 335.926 356.481Z" fill="url(#paint2_linear_454_136)"/>
<path d="M286.759 369.112C298.788 401.357 282.122 436.471 249.535 447.541C249.535 447.541 180.781 441.446 168.752 409.201C156.724 376.955 173.389 341.841 205.976 330.771C238.562 319.701 274.73 336.867 286.759 369.112Z" fill="url(#paint3_linear_454_136)"/>
<path d="M251.587 447C225.659 447 200.79 441.982 176.978 431.946C153.696 421.909 132.795 408.175 114.275 390.744C95.7549 372.784 81.2035 351.919 70.6206 328.149C60.0378 304.379 54.7463 278.496 54.7463 250.5C54.7463 223.032 59.7732 197.677 69.8269 174.435C79.8806 150.665 93.9029 129.8 111.894 111.841C129.885 93.8811 150.521 79.8831 173.803 69.8468C197.615 59.2823 223.014 54 250 54C286.511 54 319.318 62.7157 348.421 80.1472C378.053 97.0504 401.599 120.292 419.061 149.873C436.523 179.454 445.254 212.732 445.254 249.708C445.254 278.76 439.962 305.436 429.379 329.734C418.797 353.504 404.51 374.105 386.519 391.536C368.528 408.968 347.891 422.702 324.609 432.738C301.327 442.246 276.986 447 251.587 447ZM250 378.067C272.224 378.067 292.861 372.52 311.91 361.427C330.959 350.335 346.304 335.016 357.945 315.472C369.586 295.927 375.407 273.742 375.407 248.915C375.407 224.089 369.851 202.167 358.739 183.151C348.156 164.135 333.34 149.345 314.291 138.78C295.242 128.216 273.547 122.933 249.206 122.933C225.924 122.933 204.758 128.48 185.709 139.573C167.189 150.665 152.109 165.72 140.467 184.736C129.355 203.752 123.799 225.409 123.799 249.708C123.799 275.063 129.62 297.512 141.261 317.056C152.902 336.073 168.247 351.127 187.297 362.22C206.875 372.784 227.776 378.067 250 378.067Z" fill="white"/>
<defs>
<linearGradient id="paint0_linear_454_136" x1="361.753" y1="273.447" x2="386.063" y2="345.006" gradientUnits="userSpaceOnUse">
<stop stop-color="#5486D1"/>
<stop offset="1" stop-color="#2B2E6B"/>
</linearGradient>
<linearGradient id="paint1_linear_454_136" x1="322.217" y1="301.249" x2="353.205" y2="392.468" gradientUnits="userSpaceOnUse">
<stop stop-color="#0047FF"/>
<stop offset="1" stop-color="#2B5C6B"/>
</linearGradient>
<linearGradient id="paint2_linear_454_136" x1="263.221" y1="321.974" x2="299.285" y2="428.134" gradientUnits="userSpaceOnUse">
<stop stop-color="#0094FF"/>
<stop offset="1" stop-color="#2B5C6B"/>
</linearGradient>
<linearGradient id="paint3_linear_454_136" x1="205.976" y1="330.771" x2="246.047" y2="448.726" gradientUnits="userSpaceOnUse">
<stop stop-color="#1EFFE4"/>
<stop offset="1" stop-color="#004545"/>
</linearGradient>
</defs>
</svg>
