<svg width="500" height="500" viewBox="0 0 500 500" fill="none" xmlns="http://www.w3.org/2000/svg">
<path d="M444.907 305.63C453.69 329.175 440.886 355.029 416.308 363.379C391.73 371.728 364.686 359.411 355.903 335.867C347.12 312.322 359.924 286.468 384.502 278.118C409.08 269.769 436.124 282.086 444.907 305.63Z" fill="url(#paint0_linear_454_124)"/>
<path d="M412.107 347.266C423.303 377.278 407.791 409.96 377.461 420.264C347.131 430.568 313.467 414.591 302.272 384.578C291.076 354.566 306.587 321.883 336.918 311.58C367.248 301.276 400.911 317.253 412.107 347.266Z" fill="url(#paint1_linear_454_124)"/>
<path d="M353.417 378.055C366.447 412.983 348.395 451.019 313.097 463.01C277.799 475.001 238.622 456.407 225.592 421.479C212.563 386.551 230.615 348.515 265.913 336.524C301.211 324.533 340.388 343.127 353.417 378.055Z" fill="url(#paint2_linear_454_124)"/>
<path d="M294.242 393.257C308.719 432.066 288.661 474.328 249.441 487.651C249.441 487.651 166.691 480.315 152.213 441.506C137.736 402.697 157.794 360.435 197.014 347.112C236.234 333.788 279.764 354.448 294.242 393.257Z" fill="url(#paint3_linear_454_124)"/>
<path d="M251.911 487C220.705 487 190.772 480.96 162.114 468.881C134.092 456.802 108.936 440.272 86.6463 419.292C64.3564 397.677 46.8428 372.565 34.1057 343.956C21.3686 315.347 15 284.195 15 250.5C15 217.441 21.0501 186.925 33.1504 158.952C45.2507 130.343 62.1274 105.231 83.7805 83.6149C105.434 61.9993 130.271 45.1519 158.293 33.0726C186.951 20.3575 217.52 14 250 14C293.943 14 333.428 24.4899 368.455 45.4698C404.119 65.8138 432.459 93.787 453.476 129.389C474.492 164.991 485 205.044 485 249.546C485 284.513 478.631 316.618 465.894 345.863C453.157 374.472 435.962 399.266 414.309 420.246C392.656 441.226 367.818 457.755 339.797 469.835C311.775 481.278 282.48 487 251.911 487ZM250 404.034C276.748 404.034 301.585 397.359 324.512 384.008C347.439 370.657 365.908 352.22 379.919 328.698C393.93 305.175 400.935 278.473 400.935 248.593C400.935 218.712 394.248 192.329 380.874 169.442C368.137 146.554 350.305 128.753 327.378 116.038C304.451 103.323 278.34 96.9657 249.045 96.9657C221.023 96.9657 195.549 103.641 172.622 116.992C150.332 130.343 132.182 148.462 118.171 171.349C104.797 194.236 98.1098 220.302 98.1098 249.546C98.1098 280.063 105.115 307.082 119.126 330.605C133.137 353.492 151.606 371.611 174.533 384.962C198.096 397.677 223.252 404.034 250 404.034Z" fill="white"/>
<defs>
<linearGradient id="paint0_linear_454_124" x1="384.502" y1="278.118" x2="413.761" y2="364.244" gradientUnits="userSpaceOnUse">
<stop stop-color="#5486D1"/>
<stop offset="1" stop-color="#2B2E6B"/>
</linearGradient>
<linearGradient id="paint1_linear_454_124" x1="336.918" y1="311.58" x2="374.214" y2="421.367" gradientUnits="userSpaceOnUse">
<stop stop-color="#0047FF"/>
<stop offset="1" stop-color="#2B5C6B"/>
</linearGradient>
<linearGradient id="paint2_linear_454_124" x1="265.913" y1="336.524" x2="309.318" y2="464.294" gradientUnits="userSpaceOnUse">
<stop stop-color="#0094FF"/>
<stop offset="1" stop-color="#2B5C6B"/>
</linearGradient>
<linearGradient id="paint3_linear_454_124" x1="197.014" y1="347.112" x2="245.242" y2="489.078" gradientUnits="userSpaceOnUse">
<stop stop-color="#1EFFE4"/>
<stop offset="1" stop-color="#004545"/>
</linearGradient>
</defs>
</svg>
